<?xml version="1.0" encoding="UTF-8" standalone="no"?>
<!-- Created with Inkscape (http://www.inkscape.org/) -->

<svg
   xmlns:dc="http://purl.org/dc/elements/1.1/"
   xmlns:cc="http://creativecommons.org/ns#"
   xmlns:rdf="http://www.w3.org/1999/02/22-rdf-syntax-ns#"
   xmlns:svg="http://www.w3.org/2000/svg"
   xmlns="http://www.w3.org/2000/svg"
   xmlns:sodipodi="http://sodipodi.sourceforge.net/DTD/sodipodi-0.dtd"
   xmlns:inkscape="http://www.inkscape.org/namespaces/inkscape"
   width="565.70001"
   height="565.70001"
   id="svg5081"
   version="1.1"
   inkscape:version="0.48.5 r10040"
   sodipodi:docname="Sack - Zak.svg">
  <title
     id="title5746">Sack - Sac - Zak</title>
  <defs
     id="defs5083" />
  <sodipodi:namedview
     id="base"
     pagecolor="#ffffff"
     bordercolor="#666666"
     borderopacity="1.0"
     inkscape:pageopacity="0.0"
     inkscape:pageshadow="2"
     inkscape:zoom="0.37417678"
     inkscape:cx="187.72611"
     inkscape:cy="290.94532"
     inkscape:document-units="px"
     inkscape:current-layer="layer1"
     showgrid="false"
     inkscape:window-width="1920"
     inkscape:window-height="1017"
     inkscape:window-x="-8"
     inkscape:window-y="-8"
     inkscape:window-maximized="1"
     fit-margin-top="11"
     fit-margin-right="11"
     fit-margin-bottom="11"
     fit-margin-left="11" />
  <metadata
     id="metadata5086">
    <rdf:RDF>
      <cc:Work
         rdf:about="">
        <dc:format>image/svg+xml</dc:format>
        <dc:type
           rdf:resource="http://purl.org/dc/dcmitype/StillImage" />
        <dc:title>Sack - Sac - Zak</dc:title>
        <cc:license
           rdf:resource="http://creativecommons.org/licenses/by-sa/4.0/" />
        <dc:description>Sack - Sac - Zak</dc:description>
        <dc:subject>
          <rdf:Bag>
            <rdf:li>Heraldry</rdf:li>
          </rdf:Bag>
        </dc:subject>
        <dc:date>2014-10-05</dc:date>
        <dc:creator>
          <cc:Agent>
            <dc:title>https://commons.wikimedia.org/wiki/User:OSeveno</dc:title>
          </cc:Agent>
        </dc:creator>
        <dc:rights>
          <cc:Agent>
            <dc:title>CC-BY-SA 4.0</dc:title>
          </cc:Agent>
        </dc:rights>
        <dc:contributor>
          <cc:Agent>
            <dc:title>Commons Wikimedia</dc:title>
          </cc:Agent>
        </dc:contributor>
      </cc:Work>
      <cc:License
         rdf:about="http://creativecommons.org/licenses/by-sa/3.0/">
        <cc:permits
           rdf:resource="http://creativecommons.org/ns#Reproduction" />
        <cc:permits
           rdf:resource="http://creativecommons.org/ns#Distribution" />
        <cc:requires
           rdf:resource="http://creativecommons.org/ns#Notice" />
        <cc:requires
           rdf:resource="http://creativecommons.org/ns#Attribution" />
        <cc:permits
           rdf:resource="http://creativecommons.org/ns#DerivativeWorks" />
        <cc:requires
           rdf:resource="http://creativecommons.org/ns#ShareAlike" />
      </cc:License>
    </rdf:RDF>
  </metadata>
  <g
     inkscape:label="Laag 1"
     inkscape:groupmode="layer"
     id="layer1"
     transform="translate(-129.36497,-357.08143)"
     sodipodi:insensitive="true">
    <g
       id="g5739"
       transform="translate(16.746917,0)">
      <path
         sodipodi:nodetypes="ccccscc"
         inkscape:connector-curvature="0"
         id="path5093"
         d="m 178.35954,433.44229 c 16.20182,115.65813 -71.46853,366.29897 -20.30827,425.76062 15.11116,14.88205 38.32565,25.1531 63.08161,30.28075 127.92159,29.08701 227.77349,28.27916 351.50474,-5.98298 28.03532,-7.0465 51.56269,-17.17445 65.90822,-38.10814 40.38713,-58.93488 -48.45671,-285.45472 -43.23251,-407.00833 z"
         style="fill:#a6760e;fill-opacity:1;stroke:#030303;stroke-width:2.93000007;stroke-linecap:round;stroke-linejoin:round;stroke-miterlimit:4;stroke-opacity:1;stroke-dasharray:none" />
      <path
         sodipodi:nodetypes="csassc"
         inkscape:connector-curvature="0"
         id="path5091"
         d="m 177.07633,376.7107 c -21.14348,13.43864 -18.82648,72.78739 -4.77157,83.99951 15.94981,12.72374 71.92411,35.69692 110.89296,42.97994 70.32119,13.14258 144.04865,11.69783 214.61634,-0.0494 34.38139,-5.72339 71.90538,-22.62942 99.04227,-34.88666 25.53488,-11.53364 29.35624,-72.74002 7.43483,-89.93464 l -85.98359,43.4735 -273.76483,0 z"
         style="fill:#a6760e;fill-opacity:1;stroke:#030303;stroke-width:2.93000007;stroke-linecap:round;stroke-linejoin:round;stroke-miterlimit:4;stroke-opacity:1;stroke-dasharray:none" />
      <path
         sodipodi:nodetypes="aasscccca"
         inkscape:connector-curvature="0"
         id="path5089"
         d="m 262.973,435.58191 c 81.09079,19.86297 169.46688,20.14258 250.46412,-0.0985 34.4683,-8.61357 99.07734,-17.70493 94.07471,-50.10259 -0.39826,-2.57916 -1.51108,-4.7286 -3.18622,-6.51196 -14.42894,-15.36109 -70.57818,-3.56195 -71.15067,-5.2794 -87.4019,12.35822 -175.6807,22.78779 -273.76482,0.51266 0.0329,0.23007 -61.55325,-11.9811 -82.40016,2.64041 -3.50904,2.55467 -6.14267,6.98604 -6.65272,10.52506 -5.04158,38.81013 58.79547,40.03014 92.61576,48.31432 z"
         style="fill:#996d0d;fill-opacity:1;stroke:#030303;stroke-width:2.93000007;stroke-linecap:butt;stroke-linejoin:miter;stroke-miterlimit:4;stroke-opacity:1;stroke-dasharray:none" />
      <path
         sodipodi:nodetypes="csssssssccc"
         inkscape:connector-curvature="0"
         id="path5723"
         d="m 273.59657,378.06368 c -10.63419,-1.96278 -21.25682,-4.11361 -32.00495,-5.30367 -12.54847,-1.3894 -23.357,-2.44025 -37.24683,-1.76744 -6.53232,0.31642 -14.64441,1.5027 -20.72861,3.90142 -5.16336,2.03568 -9.37123,4.7615 -11.15504,9.26632 -1.68194,4.24756 -1.161,8.82434 -0.25278,13.09179 0.81764,3.84185 2.89158,7.5721 5.50118,10.42075 4.95321,5.40694 10.86356,8.66441 19.99457,12.25255 12.07028,4.74316 36.8577,8.74281 36.84562,8.76698 3.6729,-41.81316 41.92989,-43.41774 62.14775,-46.08544 -7.75513,-1.20764 -15.3906,-3.10507 -23.10091,-4.54326 z"
         style="fill:#8c630c;fill-opacity:1;stroke:none" />
      <path
         sodipodi:nodetypes="ccassaacccscssssssacassssssscc"
         inkscape:connector-curvature="0"
         id="path5725"
         d="m 181.79211,468.64858 -0.25074,13.32594 c 0,0 36.44269,20.8729 56.31972,27.12515 40.30036,12.67635 86.78873,19.30821 125.10891,20.27407 43.59772,1.09888 45.75287,-0.87423 48.31472,-0.41194 0.71956,0.12984 35.46039,-4.50589 53.09442,-2.74458 12.88963,1.28744 27.78276,1.24521 37.64598,9.64264 20.25633,17.246 31.88242,73.16559 31.88242,73.16559 2.57998,6.95156 5.01663,13.90832 7.15882,20.90682 21.64358,91.14094 40.01637,178.48369 6.98644,237.29286 -11.47396,20.69252 -49.28292,26.01377 -74.15602,32.85349 l -18.40395,5.0608 20.08439,-2.10075 c 28.03041,-2.93187 63.8738,-11.34552 105.8425,-23.38443 22.41489,-6.4298 42.14088,-16.17129 54.55853,-32.85034 6.38518,-8.5764 8.94138,-18.24534 10.38845,-28.83926 2.23461,-16.3594 1.13573,-27.97219 0.84378,-36.04567 -0.71009,-19.63699 -4.89722,-43.18756 -7.33996,-58.42648 -10.68411,-66.65228 -27.57831,-126.53206 -37.85457,-190.42951 -3.28572,-20.43053 -7.59743,-61.61253 -7.59743,-61.61253 0,0 -35.76941,15.92248 -54.23741,22.34719 -11.13485,3.87363 -22.34974,7.45737 -34.00304,9.73156 -14.75329,2.87918 -26.43472,4.34846 -43.6735,6.55453 -4.6252,0.59189 -26.60436,2.51243 -33.23286,2.99637 -6.40871,0.46789 -32.06077,1.30955 -36.44525,1.30955 -0.67844,0 -49.51635,-0.67037 -71.64096,-3.64565 -24.30394,-3.26835 -43.68356,-5.91193 -72.12514,-14.49951 -9.95879,-3.00693 -24.00059,-7.79505 -36.51015,-13.11303 -16.64145,-7.07451 -30.75806,-14.52642 -30.75806,-14.52642 z"
         style="fill:#996d0d;fill-opacity:1;stroke:none" />
    </g>
  </g>
</svg>
